<svg width="30" height="30" viewBox="0 0 30 30" fill="none" xmlns="http://www.w3.org/2000/svg">
<path d="M11.242 25.624H18.742M20.142 10.788C20.6646 11.0907 21.2577 11.2504 21.8616 11.251C22.4655 11.2517 23.0589 11.0932 23.5821 10.7916C24.1053 10.49 24.5398 10.0559 24.842 9.53306C25.1441 9.01017 25.3032 8.41694 25.3032 7.81304C25.3032 7.20914 25.1441 6.61586 24.842 6.09297C24.5398 5.57008 24.1053 5.13601 23.5821 4.83443C23.0589 4.53284 22.4655 4.37437 21.8616 4.375C21.2577 4.37563 20.6646 4.53536 20.142 4.83804L15.002 7.81402V23.748M15.14 7.81001H22.502M21.564 5.93604L19.69 7.81001L21.564 9.68604M20.184 10.8L15.024 7.82603L15.002 7.83804V11.568M7.51002 11.568H14.862M8.43801 13.444L10.312 11.568L8.43801 9.694M9.81801 14.558L15.002 11.57L9.85402 8.596C9.33144 8.29332 8.73836 8.13364 8.13446 8.13301C7.53056 8.13238 6.93715 8.29085 6.41395 8.59243C5.89074 8.89402 5.45621 9.32809 5.15408 9.85098C4.85194 10.3739 4.69287 10.9671 4.69287 11.571C4.69287 12.1749 4.85194 12.7682 5.15408 13.2911C5.45621 13.814 5.89074 14.248 6.41395 14.5496C6.93715 14.8512 7.53056 15.0097 8.13446 15.009C8.73836 15.0084 9.33144 14.8487 9.85402 14.546" stroke="black" stroke-width="0.5" stroke-miterlimit="10"/>
</svg>
